# xmcd
#
# Track frame offsets:
#	150
#	15155
#	28118
#	43193
#	61691
#	78703
#	94580
#	108450
#	123454
#	138516
#	155669
#	171111
#
# Disc length: 2469 seconds
#
# Revision: 1
# Processed by: cddbd v1.5.2PL0 Copyright (c) Steve Scherf et al.
# Submitted via: audiograbber 1.83.01
#
DISCID=9709a30c
DTITLE=Travis Collins - Brave and the Broken
DYEAR=2018
DGENRE=Country
TTITLE0=Happy
TTITLE1=Road warriors
TTITLE2=High horse
TTITLE3=It's just music
TTITLE4=Unsung
TTITLE5=Who we are
TTITLE6=Straight up fire
TTITLE7=If i was me
TTITLE8=Summer daze
TTITLE9=Over me
TTITLE10=Church of rock n roll
TTITLE11=Days with you
EXTD=
EXTT0=
EXTT1=
EXTT2=
EXTT3=
EXTT4=
EXTT5=
EXTT6=
EXTT7=
EXTT8=
EXTT9=
EXTT10=
EXTT11=
PLAYORDER=
